<svg width="24" height="24" viewBox="0 0 24 24" fill="none" xmlns="http://www.w3.org/2000/svg">
<path d="M22.4279 10.5933L13.4179 1.58335C12.6679 0.833346 11.3479 0.823346 10.5879 1.58335L1.58793 10.5833C0.80793 11.3633 0.80793 12.6233 1.58793 13.4033L10.5879 22.4033C10.9779 22.7933 11.4879 22.9833 11.9979 22.9833C12.5079 22.9833 13.0179 22.7933 13.4079 22.4033L22.3979 13.4133C23.1879 12.6533 23.1979 11.3933 22.4279 10.5933ZM12.0079 20.9933L3.00793 11.9933L12.0079 2.99335L21.0079 11.9933L12.0079 20.9933ZM7.99793 11.0033V15.0033H9.99793V12.0033H13.9979V14.5033L17.4979 11.0033L13.9979 7.50335V10.0033H8.99793C8.44793 10.0033 7.99793 10.4533 7.99793 11.0033Z" fill="#004E60"/>
</svg>
