<svg width="56" height="56" viewBox="0 0 56 56" fill="none" xmlns="http://www.w3.org/2000/svg">
<path d="M27.8133 22.1667H32.48V15.1667H39.48V10.5H32.48V3.5H27.8133V10.5H20.8133V15.1667H27.8133V22.1667ZM18.48 43.1667C15.9133 43.1667 13.8366 45.2667 13.8366 47.8333C13.8366 50.4 15.9133 52.5 18.48 52.5C21.0466 52.5 23.1466 50.4 23.1466 47.8333C23.1466 45.2667 21.0466 43.1667 18.48 43.1667ZM41.8133 43.1667C39.2466 43.1667 37.17 45.2667 37.17 47.8333C37.17 50.4 39.2466 52.5 41.8133 52.5C44.38 52.5 46.48 50.4 46.48 47.8333C46.48 45.2667 44.38 43.1667 41.8133 43.1667ZM21.0466 31.5H38.43C40.18 31.5 41.72 30.5433 42.5133 29.0967L51.52 12.74L47.46 10.5L38.43 26.8333H22.05L12.11 5.83333H4.47998V10.5H9.14665L17.5466 28.21L14.3966 33.9033C12.6933 37.03 14.9333 40.8333 18.48 40.8333H46.48V36.1667H18.48L21.0466 31.5Z" fill="#41484D"/>
</svg>
