<svg width="24" height="24" viewBox="0 0 24 24" fill="none" xmlns="http://www.w3.org/2000/svg">
<path d="M22.4274 10.5933L13.4174 1.58335C12.6674 0.833346 11.3474 0.823346 10.5874 1.58335L1.58744 10.5833C0.807441 11.3633 0.807441 12.6233 1.58744 13.4033L10.5874 22.4033C10.9774 22.7933 11.4874 22.9833 11.9974 22.9833C12.5074 22.9833 13.0174 22.7933 13.4074 22.4033L22.3974 13.4133C23.1874 12.6533 23.1974 11.3933 22.4274 10.5933ZM12.0074 20.9933L3.00744 11.9933L12.0074 2.99335L21.0074 11.9933L12.0074 20.9933ZM7.99744 11.0033V15.0033H9.99744V12.0033H13.9974V14.5033L17.4974 11.0033L13.9974 7.50335V10.0033H8.99744C8.44744 10.0033 7.99744 10.4533 7.99744 11.0033Z" fill="#004E60"/>
</svg>
