<svg width="24" height="24" viewBox="0 0 24 24" fill="none" xmlns="http://www.w3.org/2000/svg">
<path d="M17.7452 12L21.7252 8.02004C22.1152 7.63004 22.1152 7.00004 21.7252 6.61004L17.3852 2.27004C16.9952 1.88004 16.3652 1.88004 15.9752 2.27004L11.9952 6.25004L8.01516 2.27004C7.81516 2.08004 7.56516 1.98004 7.30516 1.98004C7.05516 1.98004 6.79516 2.08004 6.60516 2.27004L2.26516 6.61004C1.87516 7.00004 1.87516 7.63004 2.26516 8.02004L6.24516 12L2.26516 15.98C1.87516 16.37 1.87516 17 2.26516 17.39L6.60516 21.73C6.99516 22.12 7.62516 22.12 8.01516 21.73L11.9952 17.75L15.9752 21.73C16.1752 21.93 16.4252 22.02 16.6852 22.02C16.9452 22.02 17.1952 21.92 17.3952 21.73L21.7352 17.39C22.1252 17 22.1252 16.37 21.7352 15.98L17.7452 12ZM12.0152 8.98004C12.5652 8.98004 13.0152 9.43004 13.0152 9.98004C13.0152 10.53 12.5652 10.98 12.0152 10.98C11.4652 10.98 11.0152 10.53 11.0152 9.98004C11.0152 9.43004 11.4652 8.98004 12.0152 8.98004ZM7.30516 10.94L3.67516 7.32004L7.30516 3.69004L10.9252 7.31004L7.30516 10.94ZM10.0152 12.98C9.46516 12.98 9.01516 12.53 9.01516 11.98C9.01516 11.43 9.46516 10.98 10.0152 10.98C10.5652 10.98 11.0152 11.43 11.0152 11.98C11.0152 12.53 10.5652 12.98 10.0152 12.98ZM12.0152 14.98C11.4652 14.98 11.0152 14.53 11.0152 13.98C11.0152 13.43 11.4652 12.98 12.0152 12.98C12.5652 12.98 13.0152 13.43 13.0152 13.98C13.0152 14.53 12.5652 14.98 12.0152 14.98ZM14.0152 10.98C14.5652 10.98 15.0152 11.43 15.0152 11.98C15.0152 12.53 14.5652 12.98 14.0152 12.98C13.4652 12.98 13.0152 12.53 13.0152 11.98C13.0152 11.43 13.4652 10.98 14.0152 10.98ZM16.6752 20.32L13.0452 16.7L16.6752 13.07L20.2952 16.69L16.6752 20.32Z" fill="#41484D"/>
</svg>
