<svg width="24" height="24" viewBox="0 0 24 24" fill="none" xmlns="http://www.w3.org/2000/svg">
<mask id="mask0_3283_2577" style="mask-type:alpha" maskUnits="userSpaceOnUse" x="0" y="0" width="24" height="24">
<rect width="24" height="24" fill="#D9D9D9"/>
</mask>
<g mask="url(#mask0_3283_2577)">
<path d="M3.075 13C3.05833 12.8333 3.04583 12.6667 3.0375 12.5C3.02917 12.3333 3.025 12.1667 3.025 12C3.025 10.75 3.25833 9.57917 3.725 8.4875C4.19167 7.39583 4.83333 6.44583 5.65 5.6375C6.46667 4.82917 7.41667 4.1875 8.5 3.7125C9.58333 3.2375 10.75 3 12 3C13.25 3 14.4208 3.2375 15.5125 3.7125C16.6042 4.1875 17.5542 4.82917 18.3625 5.6375C19.1708 6.44583 19.8125 7.39583 20.2875 8.4875C20.7625 9.57917 21 10.75 21 12C21 12.1667 20.9958 12.3333 20.9875 12.5C20.9792 12.6667 20.9667 12.8333 20.95 13H18.925C18.9583 12.8333 18.9792 12.6667 18.9875 12.5C18.9958 12.3333 19 12.1667 19 12C19 11.8333 18.9958 11.6667 18.9875 11.5C18.9792 11.3333 18.9583 11.1667 18.925 11H15.975C15.9917 11.1667 16 11.3333 16 11.5V12.5C16 12.6667 15.9917 12.8333 15.975 13H14V12.175C14 11.975 13.9958 11.775 13.9875 11.575C13.9792 11.375 13.9667 11.1833 13.95 11H10.075C10.0583 11.1833 10.0458 11.375 10.0375 11.575C10.0292 11.775 10.025 11.975 10.025 12.175V13H8.05C8.03333 12.8333 8.025 12.6667 8.025 12.5V11.5C8.025 11.3333 8.03333 11.1667 8.05 11H5.1C5.06667 11.1667 5.04583 11.3333 5.0375 11.5C5.02917 11.6667 5.025 11.8333 5.025 12C5.025 12.1667 5.02917 12.3333 5.0375 12.5C5.04583 12.6667 5.06667 12.8333 5.1 13H3.075ZM5.7 9H8.275C8.40833 8.28333 8.575 7.6375 8.775 7.0625C8.975 6.4875 9.19167 5.96667 9.425 5.5C8.625 5.8 7.9 6.25417 7.25 6.8625C6.6 7.47083 6.08333 8.18333 5.7 9ZM10.35 9H13.65C13.4833 8.28333 13.275 7.58333 13.025 6.9C12.775 6.21667 12.4333 5.58333 12 5C11.5667 5.58333 11.2208 6.21667 10.9625 6.9C10.7042 7.58333 10.5 8.28333 10.35 9ZM15.75 9H18.325C17.9417 8.18333 17.4208 7.47083 16.7625 6.8625C16.1042 6.25417 15.375 5.8 14.575 5.5C14.8083 6 15.0292 6.52917 15.2375 7.0875C15.4458 7.64583 15.6167 8.28333 15.75 9ZM11 21V20C11 19.1667 10.7083 18.4583 10.125 17.875C9.54167 17.2917 8.83333 17 8 17H2V15H8C8.8 15 9.54583 15.175 10.2375 15.525C10.9292 15.875 11.5167 16.3667 12 17C12.4833 16.3667 13.0708 15.875 13.7625 15.525C14.4542 15.175 15.2 15 16 15H22V17H16C15.1667 17 14.4583 17.2917 13.875 17.875C13.2917 18.4583 13 19.1667 13 20V21H11Z" fill="#41484D"/>
</g>
</svg>
