<svg width="56" height="56" viewBox="0 0 56 56" fill="none" xmlns="http://www.w3.org/2000/svg">
<path d="M36.7619 33.2616H34.9185L34.2652 32.6316C36.5519 29.9716 37.9285 26.5183 37.9285 22.7616C37.9285 14.385 31.1385 7.59497 22.7619 7.59497C14.3852 7.59497 7.59521 14.385 7.59521 22.7616C7.59521 31.1383 14.3852 37.9283 22.7619 37.9283C26.5185 37.9283 29.9719 36.5516 32.6319 34.265L33.2619 34.9183V36.7616L44.9285 48.405L48.4052 44.9283L36.7619 33.2616ZM22.7619 33.2616C16.9519 33.2616 12.2619 28.5716 12.2619 22.7616C12.2619 16.9516 16.9519 12.2616 22.7619 12.2616C28.5719 12.2616 33.2619 16.9516 33.2619 22.7616C33.2619 28.5716 28.5719 33.2616 22.7619 33.2616Z" fill="#41484D"/>
</svg>
